<svg xmlns="http://www.w3.org/2000/svg" xmlns:xlink="http://www.w3.org/1999/xlink" version="1.1" x="0px" y="0px" viewBox="0 0 66 82.5" enable-background="new 0 0 66 66" xml:space="preserve"><g><polygon points="10.1,33.6 2.9,26.4 10.1,19.2  "/><polygon points="19.7,46.2 2.5,63.5 2.5,28.9  "/><path d="M44.8,47.7L62,65H4l17.3-17.3l11,11c0.2,0.2,0.5,0.3,0.7,0.3c0.3,0,0.6-0.1,0.8-0.3L44.8,47.7z"/><polygon points="63.1,26.4 55.9,33.6 55.9,19.2  "/><polygon points="63.5,29 63.5,63.5 46.3,46.2  "/><g><path d="M36.1,16.9c-3.6,0-6.7,3.3-6.7,7.2c0,1.1,0.4,2.4,2.1,2.4c2.2,0,4.4-2.9,4.9-5.4l0.8-4.2C36.9,16.9,36.5,16.9,36.1,16.9z"/><path d="M52.3,1H13.7c-0.8,0-1.5,0.7-1.5,1.5v33.2L33,56.5l20.8-20.8V2.5C53.8,1.7,53.1,1,52.3,1z M38.6,29.1    c-1.3,0-2.6-0.6-3.3-1.9c-1.1,0.9-2.4,1.5-3.7,1.5c-2.6,0-4.3-1.8-4.3-4.6c0-5.1,4-9.3,8.8-9.3c1,0,1.9,0.1,2.7,0.4    c0.5,0.1,0.9,0.7,0.8,1.2l-1,5.2c-0.2,1.3-0.8,2.6-1.6,3.7c0.1,1.4,1.2,1.6,1.7,1.6c2.8,0,5.6-2.7,5.6-7.8c0-5.7-4-9.7-9.7-9.7    c-8.2,0-12.5,6.6-12.5,13.2c0,6.9,5.1,10.5,10.2,10.5c2.4,0,4.3-0.4,6.1-1.4c0.5-0.3,1.2-0.1,1.4,0.4c0.3,0.5,0.1,1.2-0.5,1.4    c-2.1,1.1-4.3,1.6-7.1,1.6c-7.1,0-12.3-5.3-12.3-12.7c0-8.7,6.3-15.3,14.6-15.3c7,0,11.9,4.9,11.9,11.8    C46.3,25.7,42.4,29.1,38.6,29.1z"/></g></g><text x="0" y="81" fill="#000000" font-size="5px" font-weight="bold" font-family="'Helvetica Neue', Helvetica, Arial-Unicode, Arial, Sans-serif">Created by ProSymbols</text><text x="0" y="86" fill="#000000" font-size="5px" font-weight="bold" font-family="'Helvetica Neue', Helvetica, Arial-Unicode, Arial, Sans-serif">from the Noun Project</text></svg>